<svg id="Layer_1" data-name="Layer 1" xmlns="http://www.w3.org/2000/svg" viewBox="0 0 595.28 841.89"><defs><style>.cls-1{fill:#cb9859;}.cls-2{fill:#ddbc99;}.cls-3{fill:#9b6e3c;}.cls-4{fill:#595959;}.cls-5{fill:#fff;}</style></defs><ellipse class="cls-1" cx="298.63" cy="552.5" rx="197.59" ry="200.25"/><ellipse class="cls-2" cx="298.63" cy="560.81" rx="103.14" ry="104.53"/><circle class="cls-1" cx="298.63" cy="259.56" r="197.59"/><ellipse class="cls-1" cx="478.19" cy="481.05" rx="42.25" ry="104.55" transform="translate(-200.1 479.03) rotate(-45)"/><ellipse class="cls-1" cx="453.85" cy="720.99" rx="51.47" ry="78.39" transform="translate(-342.12 417.29) rotate(-36.93)"/><ellipse class="cls-1" cx="138.86" cy="720.99" rx="78.39" ry="51.47" transform="translate(-520.93 398.83) rotate(-53.07)"/><ellipse class="cls-1" cx="117.22" cy="481.05" rx="104.55" ry="42.25" transform="translate(-305.82 223.79) rotate(-45)"/><circle class="cls-1" cx="128.59" cy="124.47" r="73.45"/><circle class="cls-1" cx="464.77" cy="124.47" r="73.45"/><ellipse class="cls-3" cx="298.63" cy="255.63" rx="19.03" ry="9.52"/><circle class="cls-4" cx="217.02" cy="226.15" r="28.23"/><circle class="cls-5" cx="209.21" cy="238.3" r="7.81"/><circle class="cls-4" cx="378.36" cy="226.15" r="28.23"/><circle class="cls-5" cx="370.55" cy="238.3" r="7.81"/></svg>